#Comment line ignore any data following # character 
#Hierarchical Translation and Rotation (.htr) file 
[Header]	
#Header keywords are followed by a single value 
FileType HTR		#Single word string
DataType HTRS		#Translation followed by rotation and scale data
FileVersion 1		#integer
NumSegments 84		#integer
NumFrames 2		#integer
DataFrameRate 30		#integer, data frame rate in this file
EulerRotationOrder ZYX
CalibrationUnits mm
RotationUnits Degrees
GlobalAxisofGravity Y
BoneLengthAxis Y
ScaleFactor 1.00
[SegmentNames&Hierarchy]
#CHILD	PARENT
MASTER GLOBAL
root MASTER
chest root
L_mid_tent01 root
R_mid_tent01 root
spine01 root
Bip01_Neck chest
L_humerus chest
R_humerus chest
weapon_bone chest
Bip01_Head Bip01_Neck
eye_left_bone Bip01_Head
eye_right_bone Bip01_Head
L_forearm L_humerus
L_front_hand L_forearm
L_weapon_bone L_forearm
L_front_hand01_01 L_front_hand
L_front_hand02_01 L_front_hand
L_front_hand03_01 L_front_hand
L_front_hand01_02 L_front_hand01_01
L_front_hand02_02 L_front_hand02_01
L_front_hand03_02 L_front_hand03_01
R_forearm R_humerus
R_front_hand R_forearm
R_weapon_bone R_forearm
R_front_hand01_01 R_front_hand
R_front_hand02_01 R_front_hand
R_front_hand03_01 R_front_hand
R_front_hand01_02 R_front_hand01_01
R_front_hand02_02 R_front_hand02_01
R_front_hand03_02 R_front_hand03_01
null_rope01_connect L_mid_tent01
Rope1_Seg01 null_rope01_connect
Rope1_Seg02 Rope1_Seg01
Rope1_Seg03 Rope1_Seg02
Rope1_Seg04 Rope1_Seg03
Rope1_Seg05 Rope1_Seg04
Rope1_Seg06 Rope1_Seg05
Rope1_Seg07 Rope1_Seg06
Rope1_Seg09 Rope1_Seg07
L_mid_hand01 Rope1_Seg09
L_mid_hand02 Rope1_Seg09
L_mid_hand03 Rope1_Seg09
null_rope02_connect R_mid_tent01
Rope2_Seg01 null_rope02_connect
Rope2_Seg02 Rope2_Seg01
Rope2_Seg03 Rope2_Seg02
Rope2_Seg04 Rope2_Seg03
Rope2_Seg05 Rope2_Seg04
Rope2_Seg06 Rope2_Seg05
Rope2_Seg07 Rope2_Seg06
Rope2_Seg09 Rope2_Seg07
R_mid_hand01 Rope2_Seg09
R_mid_hand02 Rope2_Seg09
R_mid_hand03 Rope2_Seg09
spine02 spine01
spine03 spine02
pelvis spine03
null_rope03_connect pelvis
null_rope04_connect pelvis
Rope3_Seg01 null_rope03_connect
Rope3_Seg02 Rope3_Seg01
Rope3_Seg03 Rope3_Seg02
Rope3_Seg04 Rope3_Seg03
Rope3_Seg05 Rope3_Seg04
Rope3_Seg06 Rope3_Seg05
Rope3_Seg07 Rope3_Seg06
Rope3_Seg08 Rope3_Seg07
Rope3_Seg09 Rope3_Seg08
R_rear_hand01 Rope3_Seg09
R_rear_hand02 Rope3_Seg09
R_rear_hand03 Rope3_Seg09
Rope4_Seg01 null_rope04_connect
Rope4_Seg02 Rope4_Seg01
Rope4_Seg03 Rope4_Seg02
Rope4_Seg04 Rope4_Seg03
Rope4_Seg05 Rope4_Seg04
Rope4_Seg06 Rope4_Seg05
Rope4_Seg07 Rope4_Seg06
Rope4_Seg08 Rope4_Seg07
Rope4_Seg09 Rope4_Seg08
L_rear_hand01 Rope4_Seg09
L_rear_hand02 Rope4_Seg09
L_rear_hand03 Rope4_Seg09
[BasePosition]
#SegmentName Tx, Ty, Tz, Rx, Ry, Rz, BoneLength
MASTER 0.000000 0.000000 0.000000 -90.000000 0.000000 0.000000 10.000000 
root 0.000000 0.000000 0.000000 0.000000 0.000000 0.000000 10.000000 
chest 0.000000 0.000000 0.000000 0.000000 0.000000 0.000000 10.000000 
L_mid_tent01 0.000000 0.000000 0.000000 0.000000 0.000000 0.000000 10.000000 
R_mid_tent01 0.000000 0.000000 0.000000 0.000000 0.000000 0.000000 10.000000 
spine01 0.000000 0.000000 0.000000 0.000000 0.000000 0.000000 10.000000 
Bip01_Neck 0.000000 0.000000 0.000000 0.000000 0.000000 0.000000 10.000000 
L_humerus 0.000000 0.000000 0.000000 0.000000 0.000000 0.000000 10.000000 
R_humerus 0.000000 0.000000 0.000000 0.000000 0.000000 0.000000 10.000000 
weapon_bone 0.000000 0.000000 0.000000 0.000000 0.000000 0.000000 10.000000 
Bip01_Head 0.000000 0.000000 0.000000 0.000000 0.000000 0.000000 10.000000 
eye_left_bone 0.000000 0.000000 0.000000 0.000000 0.000000 0.000000 10.000000 
eye_right_bone 0.000000 0.000000 0.000000 0.000000 0.000000 0.000000 10.000000 
L_forearm 0.000000 0.000000 0.000000 0.000000 0.000000 0.000000 10.000000 
L_front_hand 0.000000 0.000000 0.000000 0.000000 0.000000 0.000000 10.000000 
L_weapon_bone 0.000000 0.000000 0.000000 0.000000 0.000000 0.000000 10.000000 
L_front_hand01_01 0.000000 0.000000 0.000000 0.000000 0.000000 0.000000 10.000000 
L_front_hand02_01 0.000000 0.000000 0.000000 0.000000 0.000000 0.000000 10.000000 
L_front_hand03_01 0.000000 0.000000 0.000000 0.000000 0.000000 0.000000 10.000000 
L_front_hand01_02 0.000000 0.000000 0.000000 0.000000 0.000000 0.000000 10.000000 
L_front_hand02_02 0.000000 0.000000 0.000000 0.000000 0.000000 0.000000 10.000000 
L_front_hand03_02 0.000000 0.000000 0.000000 0.000000 0.000000 0.000000 10.000000 
R_forearm 0.000000 0.000000 0.000000 0.000000 0.000000 0.000000 10.000000 
R_front_hand 0.000000 0.000000 0.000000 0.000000 0.000000 0.000000 10.000000 
R_weapon_bone 0.000000 0.000000 0.000000 0.000000 0.000000 0.000000 10.000000 
R_front_hand01_01 0.000000 0.000000 0.000000 0.000000 0.000000 0.000000 10.000000 
R_front_hand02_01 0.000000 0.000000 0.000000 0.000000 0.000000 0.000000 10.000000 
R_front_hand03_01 0.000000 0.000000 0.000000 0.000000 0.000000 0.000000 10.000000 
R_front_hand01_02 0.000000 0.000000 0.000000 0.000000 0.000000 0.000000 10.000000 
R_front_hand02_02 0.000000 0.000000 0.000000 0.000000 0.000000 0.000000 10.000000 
R_front_hand03_02 0.000000 0.000000 0.000000 0.000000 0.000000 0.000000 10.000000 
null_rope01_connect 0.000000 0.000000 0.000000 0.000000 0.000000 0.000000 10.000000 
Rope1_Seg01 0.000000 0.000000 0.000000 0.000000 0.000000 0.000000 10.000000 
Rope1_Seg02 0.000000 0.000000 0.000000 0.000000 0.000000 0.000000 10.000000 
Rope1_Seg03 0.000000 0.000000 0.000000 0.000000 0.000000 0.000000 10.000000 
Rope1_Seg04 0.000000 0.000000 0.000000 0.000000 0.000000 0.000000 10.000000 
Rope1_Seg05 0.000000 0.000000 0.000000 0.000000 0.000000 0.000000 10.000000 
Rope1_Seg06 0.000000 0.000000 0.000000 0.000000 0.000000 0.000000 10.000000 
Rope1_Seg07 0.000000 0.000000 0.000000 0.000000 0.000000 0.000000 10.000000 
Rope1_Seg09 0.000000 0.000000 0.000000 0.000000 0.000000 0.000000 10.000000 
L_mid_hand01 0.000000 0.000000 0.000000 0.000000 0.000000 0.000000 10.000000 
L_mid_hand02 0.000000 0.000000 0.000000 0.000000 0.000000 0.000000 10.000000 
L_mid_hand03 0.000000 0.000000 0.000000 0.000000 0.000000 0.000000 10.000000 
null_rope02_connect 0.000000 0.000000 0.000000 0.000000 0.000000 0.000000 10.000000 
Rope2_Seg01 0.000000 0.000000 0.000000 0.000000 0.000000 0.000000 10.000000 
Rope2_Seg02 0.000000 0.000000 0.000000 0.000000 0.000000 0.000000 10.000000 
Rope2_Seg03 0.000000 0.000000 0.000000 0.000000 0.000000 0.000000 10.000000 
Rope2_Seg04 0.000000 0.000000 0.000000 0.000000 0.000000 0.000000 10.000000 
Rope2_Seg05 0.000000 0.000000 0.000000 0.000000 0.000000 0.000000 10.000000 
Rope2_Seg06 0.000000 0.000000 0.000000 0.000000 0.000000 0.000000 10.000000 
Rope2_Seg07 0.000000 0.000000 0.000000 0.000000 0.000000 0.000000 10.000000 
Rope2_Seg09 0.000000 0.000000 0.000000 0.000000 0.000000 0.000000 10.000000 
R_mid_hand01 0.000000 0.000000 0.000000 0.000000 0.000000 0.000000 10.000000 
R_mid_hand02 0.000000 0.000000 0.000000 0.000000 0.000000 0.000000 10.000000 
R_mid_hand03 0.000000 0.000000 0.000000 0.000000 0.000000 0.000000 10.000000 
spine02 0.000000 0.000000 0.000000 0.000000 0.000000 0.000000 10.000000 
spine03 0.000000 0.000000 0.000000 0.000000 0.000000 0.000000 10.000000 
pelvis 0.000000 0.000000 0.000000 0.000000 0.000000 0.000000 10.000000 
null_rope03_connect 0.000000 0.000000 0.000000 0.000000 0.000000 0.000000 10.000000 
null_rope04_connect 0.000000 0.000000 0.000000 0.000000 0.000000 0.000000 10.000000 
Rope3_Seg01 0.000000 0.000000 0.000000 0.000000 0.000000 0.000000 10.000000 
Rope3_Seg02 0.000000 0.000000 0.000000 0.000000 0.000000 0.000000 10.000000 
Rope3_Seg03 0.000000 0.000000 0.000000 0.000000 0.000000 0.000000 10.000000 
Rope3_Seg04 0.000000 0.000000 0.000000 0.000000 0.000000 0.000000 10.000000 
Rope3_Seg05 0.000000 0.000000 0.000000 0.000000 0.000000 0.000000 10.000000 
Rope3_Seg06 0.000000 0.000000 0.000000 0.000000 0.000000 0.000000 10.000000 
Rope3_Seg07 0.000000 0.000000 0.000000 0.000000 0.000000 0.000000 10.000000 
Rope3_Seg08 0.000000 0.000000 0.000000 0.000000 0.000000 0.000000 10.000000 
Rope3_Seg09 0.000000 0.000000 0.000000 0.000000 0.000000 0.000000 10.000000 
R_rear_hand01 0.000000 0.000000 0.000000 0.000000 0.000000 0.000000 10.000000 
R_rear_hand02 0.000000 0.000000 0.000000 0.000000 0.000000 0.000000 10.000000 
R_rear_hand03 0.000000 0.000000 0.000000 0.000000 0.000000 0.000000 10.000000 
Rope4_Seg01 0.000000 0.000000 0.000000 0.000000 0.000000 0.000000 10.000000 
Rope4_Seg02 0.000000 0.000000 0.000000 0.000000 0.000000 0.000000 10.000000 
Rope4_Seg03 0.000000 0.000000 0.000000 0.000000 0.000000 0.000000 10.000000 
Rope4_Seg04 0.000000 0.000000 0.000000 0.000000 0.000000 0.000000 10.000000 
Rope4_Seg05 0.000000 0.000000 0.000000 0.000000 0.000000 0.000000 10.000000 
Rope4_Seg06 0.000000 0.000000 0.000000 0.000000 0.000000 0.000000 10.000000 
Rope4_Seg07 0.000000 0.000000 0.000000 0.000000 0.000000 0.000000 10.000000 
Rope4_Seg08 0.000000 0.000000 0.000000 0.000000 0.000000 0.000000 10.000000 
Rope4_Seg09 0.000000 0.000000 0.000000 0.000000 0.000000 0.000000 10.000000 
L_rear_hand01 0.000000 0.000000 0.000000 0.000000 0.000000 0.000000 10.000000 
L_rear_hand02 0.000000 0.000000 0.000000 0.000000 0.000000 0.000000 10.000000 
L_rear_hand03 0.000000 0.000000 0.000000 0.000000 0.000000 0.000000 10.000000 
#Beginning of Data. Separated by tabs
#Fr	Tx	Ty	Tz	Rx	Ry	Rz	SF
[MASTER]
53 -338.133972 -13866.750977 -58.085693 0.000000 -0.002347 -90.000000 13870.994141
54 -264.266113 -14051.208008 -42.521313 0.000000 -0.002347 -90.000000 14053.755859
[root]
53 -62.822273 16.502298 1500.000000 -93.954536 -31.498688 -178.607178 1501.405640
54 -62.822266 16.502300 1500.000000 -93.254257 -32.840462 -178.669266 1501.405640
[chest]
53 -84.512650 -34.090519 0.000000 -7.401122 -2.598680 175.207611 91.129311
54 -84.512650 -34.090519 0.000000 -5.412616 -1.525690 174.045059 91.129311
[L_mid_tent01]
53 27.300346 22.177591 -249.918259 -4.158266 32.565159 60.679291 252.381241
54 27.300364 22.177591 -249.918259 -2.873572 36.556973 65.711159 252.381241
[R_mid_tent01]
53 23.228794 24.509907 226.238495 175.881042 -28.500994 55.604298 228.744751
54 23.228794 24.509907 226.238495 173.895737 -30.891846 58.389217 228.744751
[spine01]
53 -0.361383 -0.195265 0.000000 0.001687 0.001632 1.890996 0.410763
54 -0.361383 -0.195265 0.000000 0.001687 0.001632 1.890996 0.410763
[Bip01_Neck]
53 165.484543 71.581718 0.000119 176.643677 -1.657967 43.431911 180.302734
54 165.484543 71.581718 0.000119 176.643677 -1.657967 43.431911 180.302734
[L_humerus]
53 -13.983130 -135.272980 -120.471481 156.317398 70.210068 -112.010254 181.680161
54 -13.983130 -135.272980 -120.471481 156.317398 70.210068 -112.010254 181.680161
[R_humerus]
53 -13.983309 -135.273102 125.287651 -172.382263 -66.903831 -92.553993 184.909012
54 -13.983309 -135.273102 125.287651 -172.382263 -66.903831 -92.553993 184.909012
[weapon_bone]
53 235.964890 -300.705902 0.000000 0.000000 -89.951546 -128.212341 382.234833
54 235.964890 -300.705902 0.000000 0.000000 -89.951546 -128.212341 382.234833
[Bip01_Head]
53 213.445053 185.715729 11.774043 18.237844 3.036987 -43.894524 283.174408
54 213.445114 185.715652 11.775018 15.004604 2.940835 -43.898628 283.174438
[eye_left_bone]
53 -24.626970 125.451866 -64.772606 0.000000 -90.000000 -99.840431 143.318359
54 -24.626970 125.451866 -64.772606 0.000000 -90.000000 -99.840431 143.318359
[eye_right_bone]
53 -24.626970 125.451866 64.327362 0.000000 -89.965736 80.156380 143.117676
54 -24.626970 125.451866 64.327362 0.000000 -89.965736 80.156380 143.117676
[L_forearm]
53 322.776093 0.000000 -0.000119 0.000119 -0.002344 -95.807457 322.776093
54 322.776093 0.000000 -0.000119 0.000119 -0.002344 -95.807457 322.776093
[L_front_hand]
53 241.149185 -0.042021 -3.300071 -178.667953 -1.835447 -27.422350 241.171753
54 241.149185 -0.042021 -3.300071 -178.667953 -1.835447 -27.422350 241.171753
[L_weapon_bone]
53 156.183838 0.000000 0.000000 0.000014 0.000007 0.000001 156.183838
54 156.183838 0.000000 0.000000 0.000014 0.000007 0.000001 156.183838
[L_front_hand01_01]
53 86.095154 20.947098 -0.655860 -0.366594 -0.477154 75.385574 88.609184
54 86.095154 20.947098 -0.655860 -0.366594 -0.477154 75.385574 88.609184
[L_front_hand02_01]
53 86.935165 -11.437475 24.513514 154.399796 -59.883835 -61.369587 91.046425
54 86.935165 -11.437475 24.513514 154.399796 -59.883835 -61.369587 91.046425
[L_front_hand03_01]
53 86.637497 -14.123976 -20.424902 -153.913849 58.118122 -62.702866 90.126129
54 86.637497 -14.123976 -20.424902 -153.913849 58.118122 -62.702866 90.126129
[L_front_hand01_02]
53 71.020905 -0.000179 0.000030 0.000334 -0.002323 -106.379684 71.020905
54 71.020905 -0.000179 0.000030 0.000334 -0.002323 -106.379684 71.020905
[L_front_hand02_02]
53 71.020927 -0.000119 0.000060 0.000334 -0.002323 -106.379684 71.020927
54 71.020927 -0.000119 0.000060 0.000334 -0.002323 -106.379684 71.020927
[L_front_hand03_02]
53 71.020905 -0.000060 0.000060 0.000334 -0.002323 -106.379684 71.020905
54 71.020905 -0.000060 0.000060 0.000334 -0.002323 -106.379684 71.020905
[R_forearm]
53 322.776428 -0.000060 0.000030 0.209504 0.012586 -94.339050 322.776428
54 322.776428 -0.000060 0.000030 0.209504 0.012586 -94.339050 322.776428
[R_front_hand]
53 238.847015 -0.006795 2.210259 -2.635298 -10.645461 -26.312506 238.857239
54 238.847015 -0.006795 2.210259 -2.635298 -10.645461 -26.312506 238.857239
[R_weapon_bone]
53 155.664093 0.002503 -0.000030 0.003487 0.001180 -90.988930 155.664078
54 155.664093 0.002503 -0.000030 0.003487 0.001180 -90.988930 155.664078
[R_front_hand01_01]
53 87.624611 14.231146 22.918642 -154.633499 -59.950619 61.746044 91.683487
54 87.624611 14.231146 22.918642 -154.633499 -59.950619 61.746044 91.683487
[R_front_hand02_01]
53 89.356956 14.367283 -19.491137 154.602661 58.302849 63.744389 92.579636
54 89.356956 14.367283 -19.491137 154.602661 58.302849 63.744389 92.579636
[R_front_hand03_01]
53 87.286232 -22.307278 -0.143439 0.162155 -0.423168 -75.767921 90.091743
54 87.286232 -22.307278 -0.143439 0.162155 -0.423168 -75.767921 90.091743
[R_front_hand01_02]
53 71.020905 0.000060 0.000119 0.002323 -0.000334 106.381714 71.020905
54 71.020905 0.000060 0.000119 0.002323 -0.000334 106.381714 71.020905
[R_front_hand02_02]
53 71.020844 -0.000030 -0.000119 0.002323 -0.000334 106.381714 71.020836
54 71.020844 -0.000030 -0.000119 0.002323 -0.000334 106.381714 71.020836
[R_front_hand03_02]
53 71.020905 0.000000 0.000030 0.002323 -0.000334 106.381714 71.020905
54 71.020905 0.000000 0.000030 0.002323 -0.000334 106.381714 71.020905
[null_rope01_connect]
53 328.732483 0.000000 -0.000238 130.119064 54.573727 10.440420 328.732483
54 328.732483 0.000000 -0.000238 130.062637 51.291935 6.902555 328.732483
[Rope1_Seg01]
53 0.000037 0.001154 0.000000 142.388306 34.488014 18.273611 0.001155
54 0.000037 0.001176 0.000000 146.071411 34.505566 23.586143 0.001177
[Rope1_Seg02]
53 139.999863 -0.000179 0.000000 8.316341 -10.821676 0.303394 139.999863
54 139.999863 -0.000179 0.000000 9.980893 -11.350773 0.284440 139.999863
[Rope1_Seg03]
53 139.999924 0.000060 -0.000060 8.720713 -25.569824 4.705156 139.999924
54 139.999924 0.000060 -0.000060 9.902696 -29.626015 6.292453 139.999924
[Rope1_Seg04]
53 139.999924 -0.000060 -0.000119 -3.299240 -41.387714 13.584114 139.999924
54 139.999924 -0.000060 -0.000119 -6.447302 -42.701023 18.570908 139.999924
[Rope1_Seg05]
53 139.999832 0.000119 -0.000060 -6.630259 -21.114910 11.744619 139.999832
54 139.999832 0.000119 -0.000060 -6.358905 -19.467495 12.459622 139.999832
[Rope1_Seg06]
53 139.999954 0.000119 -0.000060 -3.534772 -12.686734 11.659309 139.999954
54 139.999954 0.000119 -0.000060 -3.961118 -12.302259 10.910549 139.999954
[Rope1_Seg07]
53 139.999985 0.000060 0.000000 -4.497007 -8.233656 6.054396 139.999985
54 139.999985 0.000060 0.000000 -4.960175 -7.439766 4.954016 139.999985
[Rope1_Seg09]
53 121.602913 0.000119 -0.000089 -89.793175 -1.359789 0.847147 121.602913
54 121.602913 0.000119 -0.000089 -89.793175 -1.359789 0.847147 121.602913
[L_mid_hand01]
53 103.859421 1.038730 8.195221 130.544373 -67.584534 -38.866943 104.187431
54 103.859421 1.038730 8.195221 130.544373 -67.584534 -38.866943 104.187431
[L_mid_hand02]
53 105.572853 -4.139662 -10.864139 -168.923172 43.409309 -73.498886 106.211075
54 105.572853 -4.139662 -10.864139 -168.923172 43.409309 -73.498886 106.211075
[L_mid_hand03]
53 104.641464 17.579376 -3.913581 -6.012627 17.808174 74.893669 106.179977
54 104.641464 17.579376 -3.913581 -6.012627 17.808174 74.893669 106.179977
[null_rope02_connect]
53 328.732849 0.000179 -0.000119 99.582100 -62.625870 -165.775787 328.732849
54 328.732849 0.000179 -0.000119 99.425941 -59.547802 -164.876984 328.732849
[Rope2_Seg01]
53 -0.000040 -0.000010 0.000000 173.681229 42.579140 123.572273 0.000042
54 -0.000040 -0.000007 0.000000 178.548141 42.625446 125.978508 0.000040
[Rope2_Seg02]
53 139.999741 -0.000060 -0.000119 6.724449 -13.919230 0.592336 139.999756
54 139.999741 -0.000060 -0.000119 6.512925 -15.363819 1.261684 139.999756
[Rope2_Seg03]
53 140.000107 0.000030 0.000000 1.822087 -26.037863 6.590662 140.000107
54 140.000107 0.000030 0.000000 0.264297 -29.961548 9.248855 140.000107
[Rope2_Seg04]
53 139.999802 0.000000 -0.000060 -3.297057 -29.324554 13.182701 139.999802
54 139.999802 0.000000 -0.000060 -3.341472 -30.495262 12.558385 139.999802
[Rope2_Seg05]
53 139.999985 -0.000060 0.000119 -3.507088 -22.412636 -9.936319 139.999985
54 139.999985 -0.000060 0.000119 -5.595500 -22.079603 -8.375417 139.999985
[Rope2_Seg06]
53 139.999893 -0.000030 -0.000119 -7.278029 -12.932452 -12.292624 139.999893
54 139.999893 -0.000030 -0.000119 -8.626307 -12.724497 -9.584125 139.999893
[Rope2_Seg07]
53 139.999893 0.000060 -0.000060 -3.997667 -5.810174 -4.811509 139.999893
54 139.999893 0.000060 -0.000060 -4.887462 -5.772121 -4.193905 139.999893
[Rope2_Seg09]
53 121.338966 0.000089 -0.000060 33.793236 -1.359788 -0.847141 121.338966
54 121.338966 0.000089 -0.000060 33.793236 -1.359788 -0.847141 121.338966
[R_mid_hand01]
53 104.680779 11.144459 -10.335981 -16.212063 45.237240 70.462845 105.778534
54 104.680779 11.144459 -10.335981 -16.212063 45.237247 70.462852 105.778534
[R_mid_hand02]
53 104.070427 2.443552 8.231699 49.067368 -67.749771 39.286453 104.424065
54 104.070427 2.443552 8.231699 49.067368 -67.749771 39.286453 104.424065
[R_mid_hand03]
53 106.028137 -11.221827 -5.996406 -177.101105 15.551026 -76.585571 106.788818
54 106.028137 -11.221827 -5.996406 -177.101105 15.551026 -76.585571 106.788818
[spine02]
53 129.756927 0.001550 0.000119 -1.023899 -3.926965 6.770993 129.756927
54 129.756927 0.001550 0.000119 -1.023899 -3.926965 6.770993 129.756927
[spine03]
53 78.614388 0.087624 -4.898915 1.040681 4.146420 4.212376 78.766922
54 78.614395 0.087629 -4.898916 1.040681 4.146420 4.212376 78.766930
[pelvis]
53 169.435242 0.051022 0.000000 0.019518 -0.190233 -10.721436 169.435257
54 169.435242 0.051022 0.000000 0.019518 -0.190233 -10.721436 169.435257
[null_rope03_connect]
53 -1.257226 -2.466202 137.391083 166.385864 86.291542 105.856621 137.418976
54 -1.257226 -2.466202 137.391083 167.822433 86.970039 108.624908 137.418976
[null_rope04_connect]
53 -1.259640 -2.480268 -137.844437 166.385864 86.291542 105.856621 137.872513
54 -1.259640 -2.480268 -137.844437 167.822433 86.970039 108.624908 137.872513
[Rope3_Seg01]
53 0.000037 0.001154 0.000000 -135.591446 -17.433765 119.163864 0.001155
54 0.000037 0.001176 0.000000 -136.551941 -19.849251 119.409737 0.001177
[Rope3_Seg02]
53 139.999924 -0.000119 0.000060 -32.502560 0.196000 -50.283836 139.999924
54 139.999924 -0.000119 0.000060 -36.753181 3.451895 -51.496452 139.999924
[Rope3_Seg03]
53 139.999924 -0.000119 0.000119 -58.963356 18.986521 -31.277729 139.999924
54 139.999924 -0.000119 0.000119 -51.957752 22.158875 -28.514372 139.999924
[Rope3_Seg04]
53 139.999924 0.000119 0.000000 -54.659786 44.745060 -30.331501 139.999924
54 139.999924 0.000119 0.000000 -50.848854 45.985443 -30.543818 139.999924
[Rope3_Seg05]
53 139.999924 -0.000238 0.000060 -3.231659 17.665211 4.628273 139.999924
54 139.999924 -0.000238 0.000060 -3.006222 18.869541 3.725777 139.999924
[Rope3_Seg06]
53 139.999893 -0.000119 -0.000060 -0.050024 5.158374 1.930285 139.999893
54 139.999893 -0.000119 -0.000060 0.081930 5.374022 1.604781 139.999893
[Rope3_Seg07]
53 139.999771 0.000060 -0.000119 0.337325 2.961312 1.118615 139.999771
54 139.999771 0.000060 -0.000119 0.421945 3.070051 0.913426 139.999771
[Rope3_Seg08]
53 139.999985 -0.000060 0.000000 0.470891 1.685658 0.626881 139.999985
54 139.999985 -0.000060 0.000000 0.518785 1.740357 0.504172 139.999985
[Rope3_Seg09]
53 90.185997 -0.000179 -0.000060 89.793228 -1.359877 -0.847183 90.185997
54 90.185997 -0.000179 -0.000060 89.793228 -1.359877 -0.847183 90.185997
[R_rear_hand01]
53 103.366196 -6.073594 -10.757982 -177.714203 24.565960 -73.910950 104.101845
54 103.366196 -6.073594 -10.757982 -177.714203 24.565960 -73.910950 104.101845
[R_rear_hand02]
53 100.509819 12.039542 -7.992327 -12.874829 36.868488 72.167213 101.543350
54 100.509819 12.039542 -7.992327 -12.874829 36.868488 72.167213 101.543350
[R_rear_hand03]
53 101.539970 5.215704 5.435467 71.484581 -71.816628 21.513813 101.819031
54 101.539970 5.215704 5.435467 71.484581 -71.816628 21.513813 101.819031
[Rope4_Seg01]
53 0.000009 0.001156 -0.000153 56.260216 -19.779018 55.481995 0.001166
54 0.000009 0.001178 -0.000153 56.099464 -18.494873 53.597420 0.001188
[Rope4_Seg02]
53 139.999985 0.000060 0.000119 37.396244 -57.154045 30.577234 139.999985
54 139.999985 0.000060 0.000119 46.462925 -58.602409 22.270021 139.999985
[Rope4_Seg03]
53 139.999924 0.000000 -0.000238 26.258734 -7.974965 26.903704 139.999924
54 139.999924 0.000000 -0.000238 30.639853 -8.505845 26.068542 139.999924
[Rope4_Seg04]
53 139.999985 0.000000 0.000119 22.070709 -10.152625 39.366776 139.999985
54 139.999985 0.000000 0.000119 25.778797 -9.040429 41.172630 139.999985
[Rope4_Seg05]
53 139.999802 -0.000060 -0.000119 6.839551 3.507252 22.559380 139.999802
54 139.999802 -0.000060 -0.000119 6.692600 5.535242 21.203053 139.999802
[Rope4_Seg06]
53 139.999924 0.000000 0.000060 1.100624 2.266800 7.186259 139.999924
54 139.999924 0.000000 0.000060 1.026321 2.844913 6.729771 139.999924
[Rope4_Seg07]
53 139.999802 0.000000 0.000000 0.441370 1.366683 4.083362 139.999802
54 139.999802 0.000000 0.000000 0.409591 1.690297 3.831870 139.999802
[Rope4_Seg08]
53 139.999924 0.000000 0.000119 -1.362807 0.785822 2.292435 139.999924
54 139.999924 0.000000 0.000119 -1.380089 0.967563 2.156580 139.999924
[Rope4_Seg09]
53 90.185791 0.000060 0.000060 -135.617828 2.228885 0.850567 90.185791
54 90.185791 0.000060 0.000060 -135.617828 2.228885 0.850567 90.185791
[L_rear_hand01]
53 101.696655 -8.392275 -7.654577 -12.874829 -36.868488 107.832764 102.329041
54 101.696655 -8.392275 -7.654577 -12.874829 -36.868488 107.832764 102.329041
[L_rear_hand02]
53 102.726799 -1.568258 5.773216 71.484581 71.816628 158.486160 102.900848
54 102.726799 -1.568258 5.773216 71.484581 71.816628 158.486160 102.900848
[L_rear_hand03]
53 104.552910 9.721220 -10.420293 -177.714203 -24.565960 -106.089035 105.519653
54 104.552910 9.721220 -10.420293 -177.714203 -24.565960 -106.089035 105.519653
